<svg xmlns="http://www.w3.org/2000/svg" xmlns:xlink="http://www.w3.org/1999/xlink" width="434" height="533" viewBox="0 0 434 533"><defs><style>.a,.c,.k{fill:none;}.b{clip-path:url(#a);}.c,.k{stroke:#ffbd20;stroke-linecap:round;}.c{stroke-miterlimit:10;}.d{fill:#ffb2b1;}.e{fill:#ef3230;}.f{fill:#f7faff;}.g{fill:#0a0945;}.h,.i,.j{fill:#494949;}.h{opacity:0.15;}.i{opacity:0.11;}.j{opacity:0.08;}.k{stroke-linejoin:round;}</style><clipPath id="a"><rect class="a" width="434" height="533" transform="translate(1208 946)"/></clipPath></defs><g class="b" transform="translate(-1208 -946)"><g transform="translate(-40 20)"><path class="c" d="M34.876,177.879c34.866,19.956,89.114,31.566,142.983,30.6a399.2,399.2,0,0,0,115.917-19.85c21.315-7,41.024-15.527,54.3-26.23s19.612-23.8,13.517-35.939c-11-21.906-58.919-35.159-105-38.011-63.534-3.934-130.352,7.787-174.028,30.53-11.389,5.93-21.766,13.354-20.348,21.431,2.268,12.915,32.38,20.022,58.834,21.789,65.369,4.363,131.615-8.23,184.636-27.3,19.988-7.189,38.882-15.5,51.256-25.972S374.508,85.5,366.311,74.1c-6.671-9.278-21.4-16.7-37.526-22.635-31.916-11.755-71.609-18.893-111.66-18.409S137.049,42.028,111.557,57.03c-10.668,6.277-18.01,16.414-5.579,21.876,6.873,3.018,17.139,3.2,26.373,2.805C209.1,78.473,277.611,34.582,306.93,0" transform="translate(1432.322 902.663) rotate(42)"/><g transform="translate(1251 946.943)"><g transform="translate(0 275.475)"><path class="d" d="M189.059,54.249c-4.464-11.69-12.042-19.326-19.855-27.257C158.924,16.6,139.833-2.731,120.389.323c-16.566,2.585-14.744,18.5-37.478,30.076-21.441,10.985-29.665.117-51.048,11.925C28.691,44.087,6.31,56.834,1.2,80.919-.915,90.9-.387,104.592,4.019,105.884c4.993,1.469,6.7-27.315,26.669-38.594,15.273-8.635,36.3-4.464,38.007,1.7C70.516,75.514,49.427,79.8,37.5,102.477c-5.228,9.869-6.344,18.856-7.93,31.192C28.1,145.3,26.459,169.15,31.863,170.56c4.464,1.175,6.873-14.744,23.262-27.785,8.635-6.873,17.858-9.693,36.3-15.332,16.624-5.052,25.024-7.519,29.548-3.407,6.7,6.109,1.527,21.617.587,24.378-6.579,19.738-23.38,27.962-22.146,30.076,1.645,2.643,32.309-4.993,57.333-29.489C178.133,128.03,202.041,88.144,189.059,54.249Z" transform="translate(38.664 0)"/><path class="d" d="M35.927,7.46c.235,1.645,1.469,10.809-3.936,16.683C26,30.605,18.715,25.671,11.372,32.074,4.617,37.948,5.5,46.759,3.442,46.583c-2.35-.176-5.933-12.1-.881-19.326,1.586-2.291,5.463-4.347,13.158-8.341,7.872-4.112,8.929-3.936,10.985-6.168C31.815,7.225,31.051,0,32.872,0,34.282,0,35.516,4.347,35.927,7.46Z" transform="translate(0 114.872)"/><path class="d" d="M12.369,6.32c3.29,4.934,2.937,10.221,2.643,15.8-.352,5.7-.587,10.339-3.936,14.509C7.259,41.39.914,43.387.092,42.33c-.646-.822,2.232-3.055,4.817-7.93A36.41,36.41,0,0,0,8.845,18.128C8.669,7.554,2.442,1.269,4.028.152,5.2-.729,9.726,2.326,12.369,6.32Z" transform="translate(74.077 184.976)"/><path class="e" d="M12.61,1.683C2.741,8.2,8.145,23.3,1.683,32.112c-.646.881-2.173,0-1.527-.881,6.7-9.164,1-24.085,11.572-31.075.94-.646,1.821.881.881,1.527Z" transform="translate(50.28 92.217)"/><path class="e" d="M22.579,1.677A56.944,56.944,0,0,0,1.726,34.338c-.235,1.116-1.939.646-1.7-.47A58.6,58.6,0,0,1,21.64.209c1-.764,1.88.764.94,1.469Z" transform="translate(43.835 49.694)"/><path class="e" d="M20.976,1.444A65.215,65.215,0,0,0,1.767,27.408c-.411,1.057-2.115.587-1.7-.47A67.258,67.258,0,0,1,19.742.21c.822-.7,2.115.529,1.234,1.234Z" transform="translate(79.509 82.47)"/><path class="e" d="M4.823,1.066A49.737,49.737,0,0,0,1.768,14.048c-.117,1.116-1.88,1.116-1.762,0A52.811,52.811,0,0,1,3.178.6c.294-1.057,2-.587,1.645.47Z" transform="translate(72.342 118.506)"/><path class="e" d="M6.711.638A36.042,36.042,0,0,1,1.659,26.015c-.587.94-2.115.059-1.527-.881A34.2,34.2,0,0,0,5.008,1.108C4.832-.008,6.535-.478,6.711.638Z" transform="translate(160.859 128.685)"/><path class="e" d="M9.553,1.32A40.505,40.505,0,0,1,1.5,11.659c-.822.764-2.056-.47-1.234-1.234A41.121,41.121,0,0,0,8.025.439c.529-1,2.056-.117,1.527.881Z" transform="translate(150.616 158.196)"/><path class="e" d="M3.382.837A44.842,44.842,0,0,1,1.737,17.344a.884.884,0,0,1-1.7-.47A43.552,43.552,0,0,0,1.62.837C1.5-.279,3.265-.279,3.382.837Z" transform="translate(224.223 69.155)"/><path class="e" d="M6.77,1.066A39.036,39.036,0,0,1,1.659,13.872c-.587.94-2.115.059-1.527-.881A39.135,39.135,0,0,0,5.067.6c.235-1.057,1.939-.587,1.7.47Z" transform="translate(217.428 91.425)"/></g><g transform="translate(160.108 0)"><path class="f" d="M216.527,0c1.645,4.464,3.642,10.574,5.581,17.975a206,206,0,0,1,6.227,54.631c-.47,25.729-5.522,44.645-10.163,61.5a327.38,327.38,0,0,1-21.265,56.217,502.83,502.83,0,0,1-44.175,72.9c-4.876,6.638-11.1,15.038-11.1,15.038-4.523,6.051-8.4,11.1-11.1,14.744a54.045,54.045,0,0,1-8.518,7.872,54.777,54.777,0,0,1-17.975,8.811c-7.637-6.52-15.273-13.1-22.91-19.62-3.466,3.29-6.99,6.52-10.456,9.81-4.817-4.934-9.105-8.87-12.454-11.749a163.191,163.191,0,0,0-29.43-20.619c-2.408-1.292-4.464-2.291-5.874-2.937,2.173-4.347,4.347-8.694,6.52-13.1a150.354,150.354,0,0,0-12.1-9.458A141.478,141.478,0,0,0,0,231.564a58.159,58.159,0,0,1,3.936-20.619,56.394,56.394,0,0,1,6.52-12.1c13.57-19.561-26.434,34.365,25.847-40.239,20.266-28.9,30.37-43.411,35.011-49.4,14.51-18.974,25.906-31.956,34.012-41.179,15.508-17.682,22.5-24.261,28.138-29.078,7.7-6.7,16.213-13.922,29.078-20.619,8.107-4.171,14.8-6.462,24.555-9.81C199.139,4.406,209.3,1.7,216.527,0Z" transform="translate(0.941 0.764)"/><path class="g" d="M88.795.607c12.747,39.3,12.747,81.711,3.583,121.774A271.871,271.871,0,0,1,83.8,152.046c-1.7,4.934-3.76,9.751-5.581,14.627-.646,1.7-.764,3.407-1.527,5.111-1.116,2.643-2.291,5.287-3.466,7.93-2.173,4.934-4.464,9.81-6.873,14.686-2.408,4.817-5.346,9.4-7.519,14.275-.822,1.821-1.527,3.76-2.467,5.522-1.234,2.232-3.055,3.936-4.347,6.109-2.7,4.523-5.287,9.164-8.107,13.628-12.865,20.736-27.492,40.3-42.471,59.507-.7.881-1.939-.352-1.234-1.234,13.217-16.977,26.141-34.188,37.772-52.222,2.878-4.464,5.639-8.929,8.341-13.511,1.292-2.173,2.585-4.406,3.818-6.638,1.234-2.173,2.878-3.7,4.171-5.816A39.289,39.289,0,0,0,56.9,208.5c1.057-2.526,2.467-4.817,3.76-7.225,2.467-4.523,4.758-9.105,6.932-13.746,2.291-4.876,4.464-9.81,6.638-14.744.94-2.173,1.292-4.464,2.173-6.7.94-2.408,1.939-4.817,2.878-7.284a290.349,290.349,0,0,0,9.281-28.9,255.886,255.886,0,0,0,8.459-60.8A211.647,211.647,0,0,0,86.974.9C86.8.02,88.5-.45,88.795.607Z" transform="translate(130.494 1.214)"/><path class="g" d="M211.019,1.821c-9.81.764-19.8,4.171-29.019,7.4-9.105,3.231-18.093,6.755-26.434,11.572-16.624,9.634-31.31,22.264-44.7,36.009C97.058,70.961,84.487,86.528,72.327,102.1c-12.1,15.508-23.673,31.545-34.835,47.758-12.336,18.034-24.2,36.421-35.833,54.983-.587.94-2.115.059-1.527-.881,21.324-33.895,43.352-67.378,67.848-99.1,23.673-30.723,49.05-62.091,82.3-82.945C159.326,16.213,169.018,12.1,179,8.4c10.1-3.7,21.147-7.519,31.956-8.4a.913.913,0,0,1,.059,1.821Z" transform="translate(7.447)"/><path class="g" d="M120.569,90.691A479.874,479.874,0,0,0,29.106,17.85C19.707,12.093,10.191,6.689.439,1.637-.559,1.108.322-.419,1.32.11A480.707,480.707,0,0,1,97.541,66.372q12.512,11.1,24.261,23.086a.872.872,0,0,1-1.234,1.234Z" transform="translate(8.844 203.434)"/><path class="g" d="M27.366,1.556a51.531,51.531,0,0,1-26.258,15.8.884.884,0,0,1-.47-1.7A50.118,50.118,0,0,0,26.133.263c.764-.822,2,.47,1.234,1.292Z" transform="translate(103.749 293.921)"/><path class="g" d="M9.577,1.32A60.373,60.373,0,0,0,1.764,27.461C1.7,28.577-.057,28.577,0,27.461A62.528,62.528,0,0,1,8.049.439c.529-1,2.056-.117,1.527.881Z" transform="translate(0 204.221)"/><path class="g" d="M103.319,79.141A678.039,678.039,0,0,0,.4,1.659C-.538,1.072.343-.455,1.283.132a681.9,681.9,0,0,1,103.27,77.776c.822.764-.411,2-1.234,1.234Z" transform="translate(0.481 231.667)"/><path class="g" d="M58.428,41.188c-3.231,3.172-6.462,6.344-9.693,9.575a.851.851,0,0,1-1.234,0A168.109,168.109,0,0,0,15.6,24.27c-2.82-1.821-5.7-3.525-8.635-5.169C5.09,18.043,1.507,17.045.39,15.048c-1.175-2,.587-4.7,1.527-6.4A54.98,54.98,0,0,1,7.616.3c.7-.881,1.939.352,1.234,1.234a51.584,51.584,0,0,0-5.4,7.989A7.074,7.074,0,0,0,2.27,11.817c.235,1.057.47,2.056.7,3.113.294.176.587.294.881.47a43.286,43.286,0,0,0,3.995,2.173c5.111,2.878,10.1,5.992,14.921,9.34A172.8,172.8,0,0,1,48.736,49.471H47.5c3.231-3.172,6.462-6.344,9.693-9.575a.894.894,0,0,1,1.234,1.292Z" transform="translate(23.226 250.705)"/><path class="g" d="M105.145,83.974c-14.451-17.035-31.369-31.78-48.7-45.819C39.059,24.115,20.849,10.956.465,1.616c-1.057-.47-.117-2,.881-1.527C21.554,9.311,39.588,22.352,56.859,36.216c17.623,14.216,34.835,29.2,49.52,46.466.764.94-.47,2.173-1.234,1.292Z" transform="translate(109.973 63.119)"/><path d="M2.737,4.526c1.939.117,2.761-3.113.587-3.29A1.894,1.894,0,0,0,1.386,2.294,1.827,1.827,0,0,0,3.149,4.585a.677.677,0,0,1,0,1.351A3.165,3.165,0,0,1,.035,2.411,3.135,3.135,0,0,1,3.325,0,2.75,2.75,0,0,1,5.968,3,3.248,3.248,0,0,1,2.737,5.936c-.881-.117-.881-1.469,0-1.41Z" transform="translate(107.348 68.433)"/><path class="g" d="M4.032,4.138c-.059,0-.059,0-.117-.059.176,0,.352-.059.529-.059C3.8,4.314,4.15,3.08,4.209,2.9a2.087,2.087,0,0,0-.117-.587,1.991,1.991,0,0,0-.822-.881,1.4,1.4,0,0,0-1.821,1,1.271,1.271,0,0,0,2.35.94c.352-.764,1.469-.117,1.116.646C4.209,5.665,1.8,5.782.625,4.549-.726,3.08.273.613,2.094.084A2.872,2.872,0,0,1,5.442,3.491c-.176.764-1.175,1.7-1.939.94-.587-.587,0-1.88.881-1.527.764.294.411,1.527-.352,1.234Z" transform="translate(16.353 198.76)"/><path class="h" d="M217,0a327.4,327.4,0,0,0-35.6,26.611c-8.518,7.343-30.605,27.022-58.214,65.2-29.959,41.414-44.938,62.091-47.934,85.177-1.527,12.042-3.642,46.348,26.611,88.526C89.348,256,76.777,246.426,64.265,236.91,58.8,245.9,53.4,254.885,47.934,263.873c5.874,4.347,11.749,8.635,17.623,12.982-2.878,3.466-5.757,6.873-8.635,10.339a123.364,123.364,0,0,0-12.63-10.632,121.174,121.174,0,0,0-20.971-12.336c2.35-4.523,4.641-9.105,6.99-13.628C20.208,243.959,10.1,237.262,0,230.625A76.633,76.633,0,0,1,4.993,210.3a78.219,78.219,0,0,1,10.339-18.328c13.158-17.8,6.755-13.511,34.306-52.222,19.8-27.844,30.723-43.411,48.228-63.56,11.22-12.923,18.68-21.441,30.605-31.956,12.688-11.22,28.079-24.555,51.576-34.306A154.444,154.444,0,0,1,217,0Z" transform="translate(0.471 1.116)"/><path class="i" d="M18.5,0a67.209,67.209,0,0,0,4.229,16.037c6.109,15.1,15.508,21.676,35.128,41.531,9.281,9.4,23.086,23.321,21.794,24.848-1.234,1.469-16.331-10.163-42.706-27.55C21.5,44.645,8.518,36.714,0,31.545Z" transform="translate(10.34 171.764)"/><path class="j" d="M7.872,0C8.694.178,6.7,6.581,9.105,14.57c1.762,5.874,4.758,8.694,12.1,17.564,3.172,3.818,7.813,9.575,13.335,16.977L0,25.5C5.228,4.7,7.167-.115,7.872,0Z" transform="translate(1.235 205.069)"/></g></g><path class="c" d="M300.939,94.5a294.589,294.589,0,0,0-44.346-6.053c-63.534-3.934-130.352,7.787-174.028,30.53-11.389,5.93-21.766,13.354-20.348,21.431,2.268,12.915,32.38,20.022,58.834,21.789,10,.668,20.024.938,30.176.848" transform="translate(1432.322 902.663) rotate(42)"/><path class="c" d="M305.686,134.9c19.988-7.189,38.882-15.5,51.256-25.972S374.508,85.5,366.311,74.1c-6.671-9.278-21.4-16.7-37.526-22.635A289.1,289.1,0,0,0,287.858,39.9a331.287,331.287,0,0,0-70.733-6.842c-40.051.484-80.076,8.972-105.568,23.975-10.668,6.277-18.01,16.414-5.579,21.876,6.873,3.018,17.139,3.2,26.373,2.805,2.149-.091,4.292-.213,6.525-.374" transform="translate(1432.322 902.663) rotate(42)"/><path class="k" d="M461.241,257.04l-11.761,1.925,21.869-17.737-5.617,26.29Z" transform="translate(1390.028 654.222) rotate(30)"/></g></g></svg>