<svg xmlns="http://www.w3.org/2000/svg" width="164" height="316" viewBox="0 0 164 316"><defs><style>.a{fill:#e2edff;}</style></defs><g transform="translate(0.211 -2.895)"><g transform="translate(163.789 318.895) rotate(-180)"><path class="a" d="M150,0a61.312,61.312,0,0,0-31.137,8.135c-29.353,17.23-26.074,47.906-23.18,74.97.216,2.024.43,4.023.626,5.985,1.575,15.777-3.6,25.876-10.417,32.318q-.337-.81-.707-1.621C77.333,102.555,47.5,89.718,26.02,89.717h-.107C13.589,89.742,4.955,93.85,1.6,101.285-1.572,108.32-.011,115.2,6.115,121.176c13.363,13.042,47,19.483,70.339,8.24a41.905,41.905,0,0,0,8.9-5.716c9.76,26.228-6.948,49.69-21.761,70.487-2.712,3.81-5.275,7.408-7.7,11.033-14.956,22.338-28.167,46.4-23.613,71.026,2.507,13.55,10.509,24.508,23.142,31.69,15.757,8.959,37.143,10.6,54.483,4.181,26.4-9.773,39.13-22.975,53.854-40.7V269.6c-14.618,17.6-28.213,31.6-54.319,41.264-16.985,6.287-37.929,4.681-53.356-4.09C47.525,301.9,36.674,292.614,33.6,276c-4.468-24.153,8.611-47.935,23.409-70.035,2.416-3.61,4.973-7.2,7.681-11,15.1-21.206,32.151-45.142,21.744-72.211a34.355,34.355,0,0,0,9-13.287c2.035-5.28,3.049-12.119,2.211-20.509-.2-1.968-.411-3.969-.627-6-2.85-26.661-6.08-56.878,22.526-73.672,12.608-7.4,28.3-9.735,44.195-6.579L164,1.4A71.942,71.942,0,0,0,150,0ZM49.083,133.745c-16.956,0-33.8-5.492-42.033-13.528-3.965-3.87-7.917-10.2-4.227-18.38,3.124-6.927,11.326-10.754,23.093-10.778h.106c21.076,0,50.3,12.5,57.947,29.285q.464,1.015.872,2.023a40.114,40.114,0,0,1-8.967,5.842C67.866,132.066,58.457,133.745,49.083,133.745Z" transform="translate(0 0)"/></g></g></svg>