<svg xmlns="http://www.w3.org/2000/svg" width="181.332" height="221.198" viewBox="0 0 181.332 221.198"><defs><style>.a,.b{fill:none;stroke:#98bfff;stroke-linecap:round;}.a{stroke-miterlimit:10;}.b{stroke-linejoin:round;}</style></defs><g transform="translate(-1430.269 -2618.425)"><path class="a" d="M506.024,362.585c-14.916,14.448-31.334,27.591-49.955,36.65s-39.62,13.879-60.129,11.278c-22.08-2.8-44.805-16.911-49.107-38.961-2.722-13.951,2.524-28.64,11.465-39.625s21.228-18.7,33.938-24.817c21.114-10.166,46.1-16.38,67.709-7.341,8.907,3.724,17.486,11.308,17.607,21.042.156,12.508-12.973,20.506-24.655,24.671-19.278,6.874-40.129,10.682-60.242,6.976s-39.366-15.8-48.358-34.339c-10.82-22.314-4.691-50.672,11.555-69.331s40.971-28.307,65.516-30.025c15.645-1.094,31.84.884,45.715,8.268s25.13,20.691,27.713,36.311-4.814,33.07-18.935,39.954c-11.208,5.464-25,3.77-35.814-2.442s-18.927-16.444-24.74-27.555c-4.011-7.668-7.082-15.987-7.657-24.638-1.217-18.339,9.416-36.285,24.67-46.312s34.416-12.788,52.466-10.428" transform="translate(1091.947 2427.872)"/><path class="b" d="M461.241,257.04l-11.761,1.925,21.869-17.737-5.617,26.29Z" transform="matrix(0.985, 0.174, -0.174, 0.985, 1188.723, 2456.299)"/></g></svg>