<svg xmlns="http://www.w3.org/2000/svg" width="171.425" height="145.102" viewBox="0 0 171.425 145.102"><defs><style>.a,.b{fill:none;stroke:#98bfff;}.a{stroke-miterlimit:10;}.b{stroke-linecap:round;stroke-linejoin:round;}</style></defs><g transform="translate(-285.497 -2724.248)"><path class="a" d="M411.358,294.565c-16.987-17.337-28.611-40.638-29.408-65.014s10.134-49.474,30.121-63.164c8.6-5.894,18.985-9.654,29.339-8.7s20.505,7.189,24.558,16.858c4.579,10.923.421,24.385-8.414,32.2-4.966,4.4-12.033,7.277-18.207,4.911-4.436-1.7-7.646-5.912-8.907-10.531-3.407-12.475,8.142-25.986,20.957-26.148s24.152,11.078,26.212,23.851-4.021,26.01-13.69,34.5c-6.261,5.5-14.3,9.358-22.6,9.061-3.586-.128-7.511-1.294-9.343-4.41-2.206-3.751-.469-8.6,1.891-12.255,8.906-13.8,25.3-20.685,41.247-24.137,15.589-3.374,34.751-2.859,43.858,10.356,7.084,10.278,4.311,50.718-15.3,44.238a16.514,16.514,0,0,1-8.029-6.6c-7.306-10.565-6.566-25.011-2.153-37.1a70.859,70.859,0,0,1,44.243-42.619" transform="translate(-95.909 2574.435)"/><path class="b" d="M461.241,257.04l-11.761,1.925,21.869-17.737-5.617,26.29Z" transform="translate(82.557 2356.559) rotate(18)"/></g></svg>