<svg xmlns="http://www.w3.org/2000/svg" xmlns:xlink="http://www.w3.org/1999/xlink" width="538" height="512" viewBox="0 0 538 512"><defs><style>.a{fill:#fff;}.b{clip-path:url(#a);}.c{opacity:0.5;}.d{fill:#98bfff;}</style><clipPath id="a"><rect class="a" width="538" height="512"/></clipPath></defs><g class="b"><g class="c" transform="matrix(0.839, -0.545, 0.545, 0.839, -6.818, 170.16)"><path class="d" d="M318.442,0l2.505,1.152C275.039,27.062,212.886,45.439,145.938,52.9c-8.92.994-18.109,1.822-26.988,2.623-24.828,2.235-50.5,4.542-72.7,10.72C16.878,74.416-6.316,93.047,7.411,108.894c11.6,13.381,39.905,17.521,69.885,21.9,16.725,2.445,34.024,4.975,48.555,9.256,31.276,9.208,51.755,28.155,53.457,49.448,1.364,17.091-8.231,35.362-29.325,55.857-3.288,3.194-6.765,6.4-10.263,9.613-17.657,16.266-35.928,33.086-31.911,51.105,3.68,16.507,24.4,29.273,46.327,42.788,16.1,9.926,32.755,20.189,42.025,32.082C212.3,401.642,204.729,424.5,197.4,446.6l-.857,2.589c-7.164,21.726-12.9,46.57,9.872,66.494,12.485,10.92,38.123,18.941,63.787,19.959,19.243.76,35.591-2.489,46.218-9.146l2.62,1.083c-11.357,7.11-28.737,10.572-49.1,9.778-26.718-1.062-53.423-9.424-66.441-20.808-23.342-20.423-17.549-45.625-10.277-67.646l.858-2.589c7.245-21.87,14.747-44.487-1.053-64.738-9.068-11.638-25.55-21.795-41.485-31.618-21.283-13.117-43.281-26.677-47.076-43.689-4.146-18.566,14.389-35.63,32.3-52.13,3.491-3.211,6.955-6.4,10.229-9.586,20.817-20.217,30.277-38.205,28.94-54.987-1.648-20.708-21.485-39.113-51.769-48.028-14.18-4.174-31.269-6.674-47.805-9.094-30.756-4.5-59.8-8.743-72.032-22.86-14.5-16.741,9.629-36.318,40.3-44.855,22.687-6.316,48.636-8.65,73.733-10.909,8.845-.8,18-1.619,26.846-2.606C211.481,43.837,273,25.649,318.442,0Z" transform="translate(0)"/></g></g></svg>