<svg xmlns="http://www.w3.org/2000/svg" xmlns:xlink="http://www.w3.org/1999/xlink" width="259" height="290" viewBox="0 0 259 290"><defs><style>.a{fill:#fff;}.b{clip-path:url(#a);}.c{fill:none;stroke:#98bfff;stroke-miterlimit:10;}</style><clipPath id="a"><rect class="a" width="259" height="290"/></clipPath></defs><g class="b"><path class="c" d="M149.8,279.76c-8.712.8-17.777.325-25.733-3.348-15.487-7.151-23.707-25.544-22.944-42.723s8.994-33.173,18.984-47.1c7.265-10.123,15.979-19.814,27.443-24.535s26.2-3.194,34.127,6.41c6.836,8.28,7.076,20.756,2.577,30.533s-13,17.151-22.192,22.632a94.394,94.394,0,0,1-45.908,13.24c-16.214.378-33.782-4.367-43.5-17.481-13.637-18.4-6.593-44.992,5.14-64.686,15.548-26.1,41.307-48.911,71.466-49.448,17.391-.311,36.99,10.138,38.825,27.607,1.774,16.9-13.332,30.609-28.2,38.575A154.984,154.984,0,0,1,48.6,182.652C27.755,177.2,5.73,164.36,1.769,142.982c-2.87-15.493,4.763-31.088,14.447-43.45,23.217-29.634,60-47.956,97.409-48.524,15.989-.243,35.192,5.317,39.3,20.923,2.992,11.357-3.7,23.116-12.008,31.35-19.433,19.271-47.693,26.759-74.9,28.057-22.253,1.06-47.776-3.343-59.763-22.3C-1.27,97.124-1.6,81.533,3.1,68.225S17.019,43.66,27.449,34.243A143.8,143.8,0,0,1,95.8,0" transform="matrix(0.921, 0.391, -0.391, 0.921, 109.44, -25)"/></g></svg>