<svg xmlns="http://www.w3.org/2000/svg" xmlns:xlink="http://www.w3.org/1999/xlink" width="364" height="350" viewBox="0 0 364 350"><defs><style>.a{fill:#fff;}.b{clip-path:url(#a);}.c,.d,.k,.m{fill:none;}.c,.d,.j,.k{stroke:#98bfff;}.c{stroke-miterlimit:10;}.c,.d{stroke-width:1.3px;}.d,.k{stroke-linecap:round;stroke-linejoin:round;}.e{fill:#8a5cff;}.f,.j{fill:#98bfff;}.g{fill:#ffbd20;}.h{fill:#08003f;}.i{fill:#ffb2b1;}.l{stroke:none;}</style><clipPath id="a"><rect class="a" width="364" height="350" transform="translate(1278 5071)"/></clipPath></defs><g class="b" transform="translate(-1278 -5071)"><g transform="translate(20 102)"><g transform="translate(1422.572 5153.709) rotate(-11)"><path class="c" d="M1.6,107.668C-1.882,101.74.864,94.076,4.594,88.3,18.67,66.486,44.577,55.605,69.786,50.149c24.639-5.333,54.925-4.519,69.319,16.368,11.2,16.245,6.814,80.162-24.179,69.92-5.277-1.743-9.512-5.838-12.69-10.435-11.547-16.7-10.378-39.531-3.4-58.641C110.37,35.755,136.955,10.147,168.762,0" transform="translate(0 30.691)"/><path class="d" d="M18.59,24.991,0,28.033,34.565,0,25.687,41.553Z" transform="matrix(0.951, 0.309, -0.309, 0.951, 158.746, 0)"/></g><g transform="translate(1268.8 4969) rotate(2)"><g transform="translate(0)"><g transform="translate(153.167 219.674) rotate(-30)"><g transform="translate(2.436 0)"><g transform="translate(0 0)"><circle class="e" cx="39.822" cy="39.822" r="39.822" transform="matrix(0.957, -0.292, 0.292, 0.957, 0, 23.231)"/></g><g transform="translate(22.817 9.641)"><path class="f" d="M6.782,8.806c2.031-1.131,1.623-3.269.539-4.941C6.446,2.517,4.187-.276,2.394.022A2.651,2.651,0,0,0,.581,1.4a7.9,7.9,0,0,0,.825,7.432C2.871,10.483,5.117,9.733,6.782,8.806Z" transform="translate(38.278 7.573)"/><path class="f" d="M5.349,4.826C9.607,2.9,1.782-1.51.307.524-1.281,2.714,3.727,5.561,5.349,4.826Z" transform="translate(9.922 21.59)"/><path class="f" d="M31.039,27.772A40.289,40.289,0,0,0,35.632,6.727a6.856,6.856,0,0,0-5.953-6.4c-4.518-.6-9.867-.467-10.932,1.267C17.39,3.8,20.47,6.946,15.494,6.565c-4.478-.342-8.429,4.611-9.236,9.029a8.013,8.013,0,0,0,2.519,7.291c2.07,1.834,4.964,2.45,7.73,2.507a2.622,2.622,0,0,1,1.241.218c.887.494.828,1.834.314,2.709-.755,1.286-2.189,2.152-1.923,4.025a2.128,2.128,0,0,0,.969,1.489c1.816,1.162,3.064-.31,4.178-1.928a1.421,1.421,0,0,1,2.483,1.35,10.461,10.461,0,0,1-4.876,4.981c-3.278,1.292-8.3-8.41-10.972-8.142C4,30.488-1.521,49.332.39,49.085A40.425,40.425,0,0,0,31.039,27.772Z" transform="translate(30.999 30.781)"/><path class="f" d="M29.842,58.283c-1.152-2.678-3.674-3.341-5.292-5.473-1.716-2.26-1.886-5.72-3.418-8.149-2.031-3.216-5.679-5.844-8.332-8.528C9.234,32.525,5.323,25.714,5.689,22.11c.673-6.636,12.39.815,16.559-1.558,1.368-.778,2.534-2.661,4.024-3.177,1.8-.625,3.8.6,5.54.126,3.288-.888,5.288-3.169,2.02-6.289-1.654-1.58-5.229-.39-6.506-2.31C24.142,4.11,30.85,6.088,32.441,6.528c2.024.559,5.353,3.945,4.669-.651a4.259,4.259,0,0,0-.584-1.686C33.107-1.157,20.38-.483,14.572,1.278,11.553,2.608,8.592,3.922,6.191,6.69c-3.445,3.972-4.955,11.96-3.346,16.964a46.807,46.807,0,0,1,2.379,8.392c.726,5.843-1.68,5.348-3.241,9.646-1.291,3.555.918,6.968,1.36,10.293.639,4.8-1.758,7.121-2.909,11.936C-1.7,72.86,4.459,69.035,9.876,67.112,11.764,66.442,32.281,62.326,29.842,58.283Z" transform="translate(0 0)"/></g></g><g transform="translate(0 6.41)"><path class="f" d="M99.147,85.886c-4.729,0-11.613-2.836-17.378-5.709C70.449,74.53,56.71,65.4,43.082,54.478S17.559,32.126,9.585,22.305C3.811,15.192-2.38,5.847.922,1.728s13.77-.107,21.969,3.981l-.6,1.2C11.645,1.6,4.045-.024,1.969,2.568s1.158,9.655,8.658,18.893c7.914,9.748,19.738,21.1,33.293,31.97S71.13,73.371,82.368,78.975c10.65,5.313,18.247,6.934,20.324,4.343s-1.158-9.656-8.659-18.893l1.041-.846c5.775,7.114,11.966,16.459,8.665,20.578C102.757,85.38,101.144,85.886,99.147,85.886Z" transform="translate(0 0)"/></g></g><g transform="translate(28.191 0)"><path class="f" d="M150.087,316.024a61.37,61.37,0,0,1-31.154-8.136c-29.369-17.231-26.088-47.909-23.193-74.976.217-2.025.43-4.023.627-5.986,1.576-15.778-3.6-25.878-10.423-32.321q-.337.81-.707,1.621c-7.86,17.234-37.707,30.072-59.2,30.073h-.107C13.6,226.275,4.958,222.167,1.6,214.731c-3.175-7.035-1.613-13.914,4.516-19.893,13.37-13.043,47.026-19.484,70.379-8.241a41.933,41.933,0,0,1,8.909,5.716c9.765-26.23-6.952-49.693-21.773-70.492-2.714-3.811-5.278-7.409-7.707-11.034C40.963,88.448,27.744,64.382,32.3,39.756c2.508-13.551,10.515-24.51,23.155-31.692C71.222-.9,92.62-2.537,109.97,3.882c26.419,9.773,46.717,31.375,61.449,49.1l-1.031.856C155.763,36.242,135.625,14.8,109.5,5.14,92.51-1.147,71.554.458,56.118,9.23,47.551,14.1,36.694,23.387,33.619,40c-4.47,24.155,8.616,47.938,23.422,70.04,2.418,3.61,4.976,7.2,7.685,11C79.838,142.25,96.9,166.188,86.482,193.26a34.357,34.357,0,0,1,9.006,13.288c2.036,5.28,3.051,12.12,2.212,20.511-.2,1.968-.411,3.969-.628,6-2.852,26.663-6.084,56.883,22.538,73.677,12.615,7.4,28.318,9.736,44.219,6.579l.261,1.315A72.014,72.014,0,0,1,150.087,316.024ZM49.111,182.269c-16.966,0-33.818,5.493-42.056,13.529-3.967,3.87-7.922,10.2-4.23,18.381,3.126,6.928,11.332,10.755,23.106,10.779h.106c21.087,0,50.324-12.5,57.979-29.287q.464-1.015.872-2.024a40.139,40.139,0,0,0-8.972-5.842C67.9,183.948,58.49,182.269,49.111,182.269Z"/></g><g transform="translate(0 126.302)"><g transform="translate(28.051 21.806)"><path class="f" d="M14.58,18.345h0A9.393,9.393,0,0,0,19.912,6.177L17.5,0,0,6.835l2.412,6.176A9.394,9.394,0,0,0,14.58,18.345Z" transform="translate(37.013 66.316)"/><path class="g" d="M1.971,39.054a28.648,28.648,0,1,1,53.564-.516,26.237,26.237,0,0,0,.3,18.606l2,5.111L29.988,73.129l-1.995-5.108a26.02,26.02,0,0,0-12.3-13.846A28.537,28.537,0,0,1,1.971,39.054Z"/><g transform="translate(23.82 41.728)"><path class="h" d="M11.939,22.348a42.507,42.507,0,0,0-1.559-5.655A9.16,9.16,0,0,1,2.7,15.119,6.8,6.8,0,0,1,.117,11.43,4.187,4.187,0,0,1,1.655,7.045,4.441,4.441,0,0,1,6.627,7.4,10.1,10.1,0,0,1,9.5,11.2a42.788,42.788,0,0,1,1.732,3.919A29.953,29.953,0,0,0,14.6,13.974h0l.183-.071h0a30.188,30.188,0,0,0,3.249-1.439,42.72,42.72,0,0,1-1.382-4.058,10.087,10.087,0,0,1-.466-4.741A4.442,4.442,0,0,1,19.6.037a4.189,4.189,0,0,1,4.1,2.181,6.8,6.8,0,0,1,.6,4.463,9.158,9.158,0,0,1-4.581,6.364,42.572,42.572,0,0,0,2.687,5.215l-1.146.694a43.819,43.819,0,0,1-2.713-5.241,32.048,32.048,0,0,1-3.372,1.473,31.748,31.748,0,0,1-3.481,1.2,43.794,43.794,0,0,1,1.559,5.692ZM3.736,7.771a2.349,2.349,0,0,0-1.331.384,2.864,2.864,0,0,0-.982,2.97,5.492,5.492,0,0,0,2.094,2.932,7.641,7.641,0,0,0,6.389,1.356Q9.19,13.567,8.3,11.8A8.925,8.925,0,0,0,5.84,8.483,3.718,3.718,0,0,0,3.736,7.771ZM20.1,1.34a1.993,1.993,0,0,0-.3.022,3.125,3.125,0,0,0-2.3,2.568,8.923,8.923,0,0,0,.44,4.107q.542,1.9,1.266,3.746A7.634,7.634,0,0,0,22.98,6.455a5.489,5.489,0,0,0-.446-3.574A2.96,2.96,0,0,0,20.1,1.34Z"/></g><rect class="f" width="35.362" height="19.667" transform="translate(65.188 73.409) rotate(158.667)"/><g transform="translate(34.569 62.258)"><g transform="translate(0 0)"><rect class="a" width="17.961" height="1.341" transform="matrix(0.931, -0.364, 0.364, 0.931, 0, 6.538)"/></g><g transform="translate(1.788 4.58)"><rect class="a" width="17.961" height="1.341" transform="matrix(0.931, -0.364, 0.364, 0.931, 0, 6.538)"/></g><g transform="translate(3.577 9.16)"><rect class="a" width="17.961" height="1.341" transform="translate(0 6.537) rotate(-21.344)"/></g></g></g><g transform="translate(1.989 18.525)"><rect class="h" width="1.341" height="19.179" transform="matrix(0.526, -0.85, 0.85, 0.526, 0, 1.14)"/></g><g transform="translate(33.864 0)"><rect class="h" width="1.341" height="14.83" transform="translate(0 0.317) rotate(-13.682)"/></g><g transform="translate(0 52.469)"><rect class="h" width="14.829" height="1.341" transform="matrix(0.972, -0.236, 0.236, 0.972, 0, 3.503)"/></g></g><g transform="translate(192.1 45.027)"><path class="g" d="M9.022,18.495.186,2.187A1.476,1.476,0,0,1,2.2.193l16.217,9Z"/><rect class="i" width="13.221" height="94.434" transform="translate(9.021 18.495) rotate(-44.71)"/><g transform="translate(11.927 14.675)"><rect class="h" width="1.341" height="94.434" transform="matrix(0.711, -0.704, 0.704, 0.711, 0, 0.943)"/></g><g transform="translate(15.223 11.412)"><rect class="h" width="1.341" height="94.434" transform="translate(0 0.943) rotate(-44.71)"/></g><path class="f" d="M6.805,2.75,2.2.193A1.476,1.476,0,0,0,.186,2.187L2.7,6.819Z"/></g><g transform="translate(28.191 180.813)"><path class="f" d="M97.7,46.245l-1.334-.132C98.672,23.027,86.518,12.1,75.916,6.993,53.413-3.841,19.846,2.507,7.055,14.985c-3.967,3.87-7.922,10.2-4.23,18.381L1.6,33.918C-1.572,26.883-.011,20,6.119,14.025,19.489.982,53.145-5.459,76.5,5.784,87.486,11.074,100.084,22.388,97.7,46.245Z"/></g></g></g><g class="j" transform="translate(1445.886 5285)"><circle class="l" cx="3.5" cy="3.5" r="3.5"/><circle class="m" cx="3.5" cy="3.5" r="3"/></g><path class="k" d="M1.468,10.158,0,0,8.664,5.76,4.13,6.749Z" transform="translate(1454.432 5289.453) rotate(-47)"/></g></g></svg>