<svg xmlns="http://www.w3.org/2000/svg" xmlns:xlink="http://www.w3.org/1999/xlink" width="1920" height="1080" viewBox="0 0 1920 1080"><defs><style>.a,.e{fill:#fff;}.b{clip-path:url(#a);}.c,.h,.i,.j{fill:none;stroke-linecap:round;}.c,.k{stroke:#ef3230;}.c{stroke-miterlimit:10;stroke-width:3px;}.d{fill:#eaecec;}.d,.e,.f,.g,.h,.i,.j{stroke:#7491d0;}.f{fill:#f9865f;}.g{fill:#7491d0;}.h,.i{stroke-linejoin:round;}.i{stroke-width:2px;}.k{fill:#ef3230;}.l{opacity:0.3;}</style><clipPath id="a"><rect class="a" width="1920" height="1080"/></clipPath></defs><g class="b"><g transform="translate(0 -7)"><path class="c" d="M514.244,303.134c-69.413,8.581-110.406-50.467-42.333-89.43,34.866-19.956,89.114-31.566,142.983-30.6a399.2,399.2,0,0,1,115.917,19.85c21.315,7,41.023,15.527,54.3,26.23s19.612,23.8,13.517,35.939c-11,21.906-58.919,35.159-105,38.011-63.534,3.934-130.352-7.787-174.027-30.53-11.389-5.93-21.766-13.354-20.348-21.431,2.268-12.915,32.38-20.022,58.834-21.789,65.369-4.363,131.615,8.23,184.636,27.3,19.988,7.189,38.882,15.5,51.256,25.972s17.567,23.429,9.369,34.831c-6.671,9.278-21.4,16.7-37.526,22.635-31.916,11.755-71.609,18.893-111.66,18.409s-80.076-8.972-105.568-23.975c-10.668-6.277-18.01-16.414-5.579-21.876,6.873-3.018,17.139-3.2,26.373-2.805,76.75,3.239,145.26,47.13,174.579,81.711" transform="translate(310.164 379.502)"/><g transform="translate(83.275 386.173)"><path class="d" d="M557.524,422.006" transform="translate(60.118 137.867)"/><path class="e" d="M706.911,256.121" transform="translate(126.059 64.643)"/><path class="f" d="M789.613,315.892" transform="translate(162.565 91.027)"/><circle class="g" cx="3.78" cy="3.78" r="3.78" transform="translate(485.792 229.331)"/><g transform="translate(491.498 199.84) rotate(3)"><path class="h" d="M820.631,395.127,818.3,379.021l13.738,9.133-7.19,1.568Z" transform="translate(-518.12 -107.002)"/><path class="h" d="M820.631,395.127,818.3,379.021l13.738,9.133-7.19,1.568Z" transform="translate(265.866 -698.905) rotate(51)"/><path class="i" d="M545.327,220.014c-26.033-22.969-68.663,33.923,88.747,216.229,90.8,105.164,162.149,114.6,171.812,78.009,17.34-65.64-45.279-82.234-21.98-56.523,33.881,37.384,130.252,45.282,202.063,10.4,70.859-34.423,27.3-87.881,22.9-91" transform="translate(-519.994 -214.823)"/><circle class="g" cx="4.211" cy="4.211" r="4.211" transform="translate(284.091 257.133)"/><path class="j" d="M0,57.174,66.595,16.6" transform="translate(254.863 225.362)"/><line class="h" x2="46.299" y2="23.609" transform="translate(465.233 150.344)"/><circle class="k" cx="4.211" cy="4.211" r="4.211" transform="translate(489.587 155.695) rotate(51)"/><circle class="g" cx="4.211" cy="4.211" r="4.211" transform="translate(24.157 4.999)"/></g><g class="l" transform="translate(1684.931 187.697) rotate(-145)"><path class="i" d="M93.513,395.078c-39.5-39.7-47.126-118.785,70.645-255.183C294.556-11.125,397.011-24.67,410.888,27.871c24.9,94.262-65.022,118.091-31.564,81.17,48.655-53.684,187.047-65.027,290.171-14.928,101.756,49.433,39.211,126.2,32.892,130.679" transform="translate(0 0)"/></g><g transform="translate(223.423 222.193) rotate(-55)"><path class="i" d="M116.136-30.018c-112.7-49.921-197.773,104.947,13.8,243.8,8.286,8.163,42.382,15.66,42.382,15.66" transform="translate(7.138 6.002)"/><ellipse class="g" cx="2.517" cy="2.517" rx="2.517" ry="2.517" transform="translate(15.516 -13.356)"/><g transform="translate(-0.323 -30.314)"><path class="h" d="M0,2.645,2.755,0,9.088,3.624l3.183,9.822L2.55,9.377Z" transform="translate(1.543 1.763)"/><path class="h" d="M4.3,1.763,1.543,4.408,0,2.534,2.645,0Z" transform="translate(0 0)"/><line class="h" x1="6.321" y1="6.945" transform="translate(7.493 8.263)"/></g></g><g transform="translate(410.332 32.677)"><g transform="translate(9.922 18.734)"><line class="h" x1="1.027" y1="2.586" transform="translate(0.705)"/><line class="h" y1="0.905" x2="2.443" transform="translate(0 0.864)"/></g><g transform="translate(1.09 9.502)"><line class="h" x1="1.937" y1="4.878" transform="translate(1.119)"/><line class="h" y1="1.699" x2="4.279" transform="translate(0 1.581)"/></g><g transform="translate(-4 17.555)"><line class="h" x1="2.59" y1="6.44" transform="translate(1.617)"/><line class="h" y1="2.374" x2="6.003" transform="translate(0 2.177)"/></g></g><g transform="translate(1541.36 509.677)"><g transform="translate(9.922 18.734)"><line class="h" x1="1.027" y1="2.586" transform="translate(0.705)"/><line class="h" y1="0.905" x2="2.443" transform="translate(0 0.864)"/></g><g transform="translate(1.09 9.502)"><line class="h" x1="1.937" y1="4.878" transform="translate(1.119)"/><line class="h" y1="1.699" x2="4.279" transform="translate(0 1.581)"/></g><g transform="translate(-4 17.555)"><line class="h" x1="2.59" y1="6.44" transform="translate(1.617)"/><line class="h" y1="2.374" x2="6.003" transform="translate(0 2.177)"/></g></g><g transform="translate(4 -18.082)"><path class="i" d="M278.377,142.89s29.68,88.375-103.012,36.237C37.41,124.923-17.686,11.265,4.915,2.293S61.179,13.561,61.179,13.561" transform="translate(1054.906 441.17)"/><ellipse class="g" cx="2.517" cy="2.517" rx="2.517" ry="2.517" transform="translate(1335.862 582.343) rotate(97)"/><g transform="translate(1332.745 562.334) rotate(97)"><path class="h" d="M0,14.269l3.639,3.494,8.367-4.787L16.211,0,3.369,5.375Z" transform="translate(2.038 0)"/><path class="h" d="M5.677,3.494,2.038,0,0,2.475,3.494,5.823Z" transform="translate(0 14.269)"/><line class="h" x1="8.351" y2="9.175" transform="translate(9.898 0)"/></g></g></g></g></g></svg>