<svg xmlns="http://www.w3.org/2000/svg" xmlns:xlink="http://www.w3.org/1999/xlink" width="675" height="420" viewBox="0 0 675 420"><defs><style>.a,.h,.v{fill:#fff;}.b{clip-path:url(#a);}.c{fill:#eaecec;}.d{fill:#f9865f;}.e,.g{fill:#142751;}.aa,.f,.j,.t,.u,.x,.y{fill:none;}.f,.g,.h{stroke:#142751;}.f,.n,.r,.t,.u,.x,.y{stroke-linecap:round;stroke-linejoin:round;}.i{fill:#ff6d66;}.j,.y{stroke:#a0c6f4;}.j,.v{stroke-miterlimit:10;}.j{stroke-width:4px;}.k{fill:#fad8b0;}.l{fill:#ffe1c0;}.m{fill:#a0c6f4;}.n,.w{fill:#ffbd20;}.n{stroke:#ffbd20;}.o{fill:#ef3230;}.p,.r{fill:#98bfff;}.q{fill:#005cfb;}.r{stroke:#98bfff;}.s{fill:#91ba83;}.t{stroke:#005cfb;}.u{stroke:#fff;}.x{stroke:#ff6d66;}.ab,.ac,.ad,.z{stroke:none;}.ab{fill:#a0c6f4;}.ac{fill:#ffbd20;}.ad{fill:#96bd89;}</style><clipPath id="a"><rect class="a" width="675" height="420" transform="translate(140 1183)"/></clipPath></defs><g class="b" transform="translate(-140 -1183)"><g transform="translate(360.249 1143.735) rotate(29)"><path class="c" d="M557.524,422.006" transform="translate(-200.871 -46.501)"/><path class="a" d="M706.911,256.121" transform="translate(-534.662 -87.118)"/><path class="d" d="M789.613,315.892" transform="translate(-718.857 -72.483)"/><ellipse class="e" cx="3.265" cy="3.265" rx="3.265" ry="3.265" transform="translate(273.901 301.662)"/><g transform="matrix(-0.951, -0.309, 0.309, -0.951, 318.286, 392.259)"><path class="f" d="M1.468,0,0,10.158,8.664,4.4,4.13,3.409Z" transform="translate(302.086 24.647)"/><path class="f" d="M16.221,198.05C-.2,212.536-27.327,176.413,71.947,61.438,129.214-4.886,174.21-10.834,180.3,12.24c10.936,41.4-28.556,51.862-13.862,35.648,21.368-23.577,82.146-28.558,127.435-6.556,44.689,21.709,17.22,55.424,14.446,57.39" transform="translate(0 0)"/><ellipse class="g" cx="2.656" cy="2.656" rx="2.656" ry="2.656" transform="translate(291.936 38.882)"/><line class="f" x2="78.717" y2="44.368" transform="translate(255.949 19.863)"/><ellipse class="h" cx="2.656" cy="2.656" rx="2.656" ry="2.656" transform="translate(15.202 193.247)"/></g><ellipse class="i" cx="7.004" cy="7.004" rx="7.004" ry="7.004" transform="translate(198.97 164.967)"/><g class="j" transform="translate(421.599 3.141)"><ellipse class="z" cx="3.079" cy="3.079" rx="3.079" ry="3.079"/><ellipse class="aa" cx="3.079" cy="3.079" rx="1.079" ry="1.079"/></g><ellipse class="k" cx="3.079" cy="3.079" rx="3.079" ry="3.079" transform="translate(292.906 195.057)"/><ellipse class="i" cx="3.079" cy="3.079" rx="3.079" ry="3.079" transform="translate(401.798 293.536)"/><ellipse class="i" cx="4.278" cy="4.278" rx="4.278" ry="4.278" transform="translate(244.45 362.054)"/><rect class="l" width="11.139" height="11.139" transform="translate(77.812 124.52)"/><path class="m" d="M777.512,341.086,774.2,346.82l-3.311,5.734h13.243l-3.311-5.734Z" transform="translate(-676.221 -24.559)"/><g transform="translate(-17.58 34.608)"><g transform="translate(0 33.393)"><path class="n" d="M736.988,179.839l37.091,28.389a1.833,1.833,0,0,0,2.588-.367l5.6-7.59a1.833,1.833,0,0,0-.33-2.518L745.37,168.493a1.831,1.831,0,0,0-2.628.356l-6.123,8.461A1.83,1.83,0,0,0,736.988,179.839Z" transform="translate(-736.27 -168.091)"/><path class="o" d="M739.053,177.991l9,6.312,5.307-6.335-9-7.5Z" transform="translate(-735.589 -167.51)"/><path class="p" d="M749,184.768l9.006,7.146,4.828-5.939-9.066-7.357Z" transform="translate(-733.153 -165.514)"/><path class="q" d="M758.668,192.747l8.995,6.312,4.284-5.505-8.52-7.13Z" transform="translate(-730.786 -163.603)"/></g><g transform="translate(74.706 0)"><path class="r" d="M796.3,146.718l8.451,71.027a2.806,2.806,0,0,0,3.167,2.449l14.311-1.959a2.805,2.805,0,0,0,2.411-3.051L817.706,143.8a2.806,2.806,0,0,0-3.2-2.5l-15.825,2.314A2.8,2.8,0,0,0,796.3,146.718Z" transform="translate(-796.282 -141.267)"/><path class="o" d="M799.77,147.415l2.678,16.613,12.621-.94L813.7,145.2Z" transform="translate(-795.428 -140.303)"/><path class="s" d="M802.657,165.685l1.775,17.516,11.674-1.044L814.5,164.35Z" transform="translate(-794.721 -135.615)"/><path class="k" d="M804.261,184.821l2.678,16.613,10.618-1.177-1.273-16.966Z" transform="translate(-794.328 -130.977)"/></g><path class="r" d="M781.5,159.547l23.406,68.8a2.231,2.231,0,0,0,2.868,1.381l14.661-5.277a2.234,2.234,0,0,0,1.372-2.774L801.828,152.2a2.232,2.232,0,0,0-2.9-1.42l-16.087,5.958A2.232,2.232,0,0,0,781.5,159.547Z" transform="translate(-725.225 -138.973)"/><path class="a" d="M785.295,159.8l6.075,15.693,12.149-3.544-5.062-17.212Z" transform="translate(-724.266 -137.969)"/><path class="d" d="M791.953,176.981l5.379,16.764,11.2-3.449-5.276-17.084Z" transform="translate(-722.636 -133.445)"/><path class="k" d="M797.494,195.373l6.075,15.693,10.141-3.359-4.774-16.33Z" transform="translate(-721.279 -128.997)"/></g><g transform="matrix(0.891, -0.454, 0.454, 0.891, 159.336, 332.084)"><g transform="translate(0 33.393)"><path class="n" d="M736.988,179.839l37.091,28.389a1.833,1.833,0,0,0,2.588-.367l5.6-7.59a1.833,1.833,0,0,0-.33-2.518L745.37,168.493a1.831,1.831,0,0,0-2.628.356l-6.123,8.461A1.83,1.83,0,0,0,736.988,179.839Z" transform="translate(-736.27 -168.091)"/><path class="o" d="M739.053,177.991l9,6.312,5.307-6.335-9-7.5Z" transform="translate(-735.589 -167.51)"/><path class="p" d="M749,184.768l9.006,7.146,4.828-5.939-9.066-7.357Z" transform="translate(-733.153 -165.514)"/><path class="q" d="M758.668,192.747l8.995,6.312,4.284-5.505-8.52-7.13Z" transform="translate(-730.786 -163.603)"/></g></g><g transform="translate(416.69 65.671)"><path class="s" d="M0,0H3.182a1.7,1.7,0,0,1,1.7,1.7V6.665a1.7,1.7,0,0,1-1.7,1.7H0a0,0,0,0,1,0,0V0A0,0,0,0,1,0,0Z" transform="translate(9.465 17.714) rotate(132.409)"/><rect class="t" width="15.473" height="10.666" rx="0.98" transform="translate(2.578 11.424) rotate(-47.591)"/></g><g transform="translate(467.127 138.706)"><rect class="i" width="11.044" height="10.083" transform="translate(0 6.488)"/><path class="t" d="M471.1,209.53v6.488h6.606" transform="translate(-460.059 -209.53)"/></g><g transform="translate(319.596 -21.121)"><rect class="k" width="11.044" height="10.083" transform="translate(0 6.488)"/><path class="u" d="M763.352,118.06v6.489h6.606" transform="translate(-752.309 -118.06)"/></g><g transform="translate(289.836 20.926) rotate(-20)"><path class="f" d="M49.967,12.995c101.715-48.721,180.02,45.112-11.716,188.8C23.153,213.107,0,217.077,0,217.077" transform="translate(0 7.784)"/><ellipse class="g" cx="3.265" cy="3.265" rx="3.265" ry="3.265" transform="translate(138.746 20.368)"/><g transform="translate(146.87 0)"><path class="f" d="M15.914,3.43,12.341,0,4.128,4.7,0,17.436,12.607,12.16Z" transform="translate(0 2.286)"/><path class="f" d="M0,2.287l3.573,3.43,2-2.429L2.144,0Z" transform="translate(12.341)"/><line class="f" y1="9.007" x2="8.198" transform="translate(0 10.716)"/></g></g><g transform="translate(102.43 9.945)"><g transform="translate(35.522 0)"><g transform="translate(0 2.734)"><g class="v" transform="translate(0 0)"><path class="z" d="M 50.10560989379883 127.7771759033203 L 2.266834735870361 68.54756164550781 C 2.584435701370239 67.75872802734375 3.140965938568115 66.50468444824219 4.029757499694824 64.87990570068359 C 5.488871097564697 62.21247100830078 8.167030334472656 57.97254180908203 12.63946151733398 52.92153930664063 C 17.67598533630371 47.23349380493164 23.91241645812988 41.69979095458984 31.17555236816406 36.4741325378418 C 40.27202987670898 29.92940521240234 51.01182556152344 23.85349464416504 63.09662246704102 18.41519927978516 C 76.95371246337891 12.17954063415527 90.30426025390625 7.637245178222656 102.7773971557617 4.914472579956055 C 113.8123245239258 2.505631685256958 122.0831680297852 2.000017881393433 127.0783920288086 2.000017881393433 C 130.9705200195313 2.000017881393433 133.4905090332031 2.299274206161499 134.5362243652344 2.454616546630859 C 134.8161315917969 2.865598678588867 135.3984985351563 3.841800689697266 136.4756011962891 6.094586372375488 C 137.505615234375 8.248881340026855 138.8127746582031 11.20460891723633 140.3607635498047 14.87963199615479 C 142.9809417724609 21.10020065307617 146.32177734375 29.44960975646973 150.2904815673828 39.69592666625977 C 155.5830993652344 53.36033630371094 160.6053314208984 66.82490539550781 162.5701599121094 72.11837768554688 C 160.7101287841797 72.39132690429688 157.8791198730469 72.85845184326172 154.2338714599609 73.61244964599609 C 148.0289001464844 74.89590454101563 138.1903228759766 77.29295349121094 126.5567321777344 81.42390441894531 C 106.407829284668 88.57855987548828 76.95695495605469 102.4002075195313 50.10560989379883 127.7771759033203 Z"/><path class="ab" d="M 127.078369140625 3.999977111816406 C 122.1815948486328 3.999977111816406 114.0646514892578 4.497634887695313 103.2039031982422 6.868446350097656 C 90.86605834960938 9.561660766601563 77.64815521240234 14.06019592285156 63.91737365722656 20.23900604248047 C 52.05258941650391 25.57831573486328 41.50371551513672 31.53363037109375 32.56375122070313 37.93953704833984 C 25.43923950195313 43.04457092285156 19.31727600097656 48.44387817382813 14.36790466308594 53.98754119873047 C 9.981338500976563 58.90078735351563 7.347808837890625 63.01969528198242 5.911026000976563 65.60984802246094 C 5.335052490234375 66.64816284179688 4.900283813476563 67.5301513671875 4.580978393554688 68.22969818115234 L 50.31031799316406 124.8475799560547 C 76.98526763916016 100.1679153442383 105.9493713378906 86.61900329589844 125.8874969482422 79.53919219970703 C 137.6281585693359 75.37022399902344 147.5624084472656 72.95004272460938 153.8287811279297 71.65388488769531 C 156.1764678955078 71.16828155517578 158.1959381103516 70.79948425292969 159.8435668945313 70.52373504638672 C 157.5453186035156 64.35179138183594 153.2325286865234 52.84317016601563 148.6859893798828 41.09125518798828 C 144.78173828125 30.99950408935547 141.4743347167969 22.71269226074219 138.8556823730469 16.46097564697266 C 135.6471099853516 8.800895690917969 134.0574798583984 5.615325927734375 133.327880859375 4.313812255859375 C 132.0759887695313 4.170463562011719 129.9776306152344 3.999977111816406 127.078369140625 3.999977111816406 M 127.0783843994141 -7.62939453125e-06 C 132.6298828125 -7.62939453125e-06 135.4855651855469 0.585723876953125 135.4855651855469 0.585723876953125 C 138.729248046875 1.667472839355469 165.3167419433594 73.77584838867188 165.3167419433594 73.77584838867188 C 165.3167419433594 73.77584838867188 102.2084350585938 80.21353912353516 49.91552734375 130.724853515625 L 0 68.92401123046875 C 0 68.92401123046875 8.32830810546875 40.86847686767578 62.27587127685547 16.59134674072266 C 93.89209747314453 2.364128112792969 115.9254150390625 -7.62939453125e-06 127.0783843994141 -7.62939453125e-06 Z"/></g><path class="f" d="M100.289,0S38.236,6.269,0,41.369" transform="translate(55.762 79.377)"/><path class="m" d="M46.942,45.013,23.793,0,0,46.942Z" transform="translate(55.525 31.338)"/><path class="u" d="M46.942,45.013,23.793,0,0,46.942Z" transform="translate(51.024 30.695)"/></g><path class="f" d="M112.826,0S43.25,6.267,0,57.666" transform="translate(6.871)"/></g><g transform="translate(217.852 78.489)"><path class="w" d="M24.666,59.015c18.662-13.436,37-34.317,28.956-55.766,0,0-12.87-8.579-33.247,2.145L0,16.119Z" transform="translate(6.435 0)"/><g class="v" transform="translate(0 3.249)"><path class="z" d="M 39.30074691772461 146.0455017089844 L 2.099260330200195 72.67678833007813 C 13.21496772766113 68.53345489501953 21.13803100585938 64.78768157958984 31.97770500183105 56.98342514038086 C 39.59268569946289 51.50082397460938 50.09270477294922 42.65964508056641 56.87016677856445 31.67540550231934 C 61.99145126342773 23.37532997131348 64.15610504150391 15.24894905090332 63.34652328491211 7.421247482299805 C 63.83677291870117 8.16517448425293 64.35736846923828 8.964717864990234 64.90294647216797 9.815205574035645 C 68.16922760009766 14.9069652557373 73.0296630859375 22.92594528198242 77.63582611083984 32.21274566650391 C 82.79814910888672 42.62084579467773 86.59572601318359 52.46724700927734 88.92310333251953 61.47844696044922 C 91.80704498291016 72.64458465576172 92.42438507080078 82.53092193603516 90.75798797607422 90.86280822753906 C 89.09298706054688 99.18794250488281 85.30994415283203 107.2863845825195 79.51396942138672 114.9331665039063 C 74.84602355957031 121.091682434082 68.87004852294922 126.9734420776367 61.75202560424805 132.4150848388672 C 55.39430618286133 137.2754821777344 49.28604507446289 140.8754425048828 45.28138732910156 143.0395660400391 C 42.64435958862305 144.4646148681641 40.54818725585938 145.4713287353516 39.30074691772461 146.0455017089844 Z"/><path class="ac" d="M 64.95451354980469 12.69758605957031 C 64.55635070800781 19.14910888671875 62.28426361083984 25.75733947753906 58.146728515625 32.46305847167969 C 51.23933410644531 43.65785217285156 40.57994079589844 52.63835144042969 32.8541259765625 58.20074462890625 C 22.39438629150391 65.73146057128906 14.62698364257813 69.52594757080078 4.194023132324219 73.49125671386719 L 39.97920989990234 144.0667419433594 C 43.97092437744141 142.1434020996094 52.16610336303711 137.8464813232422 60.78296661376953 131.2677764892578 C 67.80670166015625 125.9053497314453 73.69822692871094 120.1156921386719 78.29386138916016 114.0596160888672 C 83.96588897705078 106.5851135253906 87.66454315185547 98.68158721923828 89.28712463378906 90.56864166259766 C 90.90762329101563 82.46619415283203 90.29859924316406 72.81314086914063 87.47698974609375 61.87763977050781 C 85.17933654785156 52.97287750244141 81.42333221435547 43.23085021972656 76.31333160400391 32.92216491699219 C 72.3123779296875 24.85085296630859 68.11551666259766 17.74015808105469 64.95451354980469 12.69758605957031 M 60.05707168579102 1.52587890625e-05 C 60.05707168579102 1.52587890625e-05 99.73593902587891 53.62203216552734 92.22885894775391 91.156982421875 C 84.72201538085938 128.6917114257813 38.60817718505859 147.9964752197266 38.60817718505859 147.9964752197266 L -7.62939453125e-06 71.85348510742188 C 12.06496429443359 67.42964172363281 19.90306854248047 63.82848358154297 31.10125732421875 55.76611328125 C 49.76338577270508 42.32982635498047 68.10012817382813 21.44876861572266 60.05707168579102 1.52587890625e-05 Z"/></g><path class="u" d="M23.848,0A46.013,46.013,0,0,1,0,33.08" transform="translate(46.643 34.409)"/><line class="u" x1="21.54" y2="11.539" transform="translate(13.563 75.183)"/><path class="u" d="M29.234,0S22.31,15.385,0,25.386" transform="translate(38.18 65.182)"/><path class="u" d="M11.539,0S10.77,16.155,0,21.54" transform="translate(73.568 67.49)"/><path class="f" d="M29.389,0S31.385,20.748,0,47.684" transform="translate(31.101 11.33)"/><path class="f" d="M24.618.012s-10-.769-24.618,10" transform="translate(24.332 15.165)"/><path class="f" d="M54.658,0C55.3,10.29,54.016,47.586,0,71.378" transform="translate(41.323 81.418)"/></g><g transform="translate(0 159.708)"><path class="s" d="M32.448,0,55.359,45.919s-15.54,5.719-3.392,23.532c0,0-28.722,11.911-47.516-19.025S32.448,0,32.448,0Z" transform="translate(0 0)"/><g class="v" transform="translate(4.452 50.425)"><path class="z" d="M 80.43148803710938 90.48121643066406 C 74.90275573730469 90.48121643066406 69.48193359375 89.41049957275391 64.31965637207031 87.29882049560547 C 60.17698669433594 85.60423278808594 56.18703842163086 83.23853302001953 52.46065521240234 80.26741790771484 C 46.35973739624023 75.40304565429688 42.99844741821289 70.52391052246094 42.7140007019043 70.10289001464844 L 9.929678916931152 14.01529788970947 C 18.4432430267334 20.98817253112793 27.41929244995117 22.77948379516602 34.38995361328125 22.77948379516602 C 42.28613662719727 22.77948379516602 47.85687255859375 20.50743293762207 48.09015274047852 20.41069984436035 L 48.20746994018555 20.3620662689209 L 48.31493759155273 20.29440116882324 L 74.15729522705078 4.021636009216309 L 117.5924987792969 75.97574615478516 C 104.7804641723633 85.60237121582031 92.28408050537109 90.48121643066406 80.43148803710938 90.48121643066406 Z"/><path class="ad" d="M 73.66309356689453 6.105445861816406 L 49.11422729492188 21.56370544433594 L 48.8992919921875 21.69905090332031 L 48.66465759277344 21.79631042480469 C 48.42011260986328 21.897705078125 42.58137512207031 24.27946472167969 34.38993835449219 24.27946472167969 C 28.677490234375 24.27946472167969 21.67137908935547 23.12635803222656 14.63663482666016 19.09552001953125 L 43.98235321044922 69.30035400390625 C 44.37063598632813 69.86620330810547 47.692626953125 74.58401489257813 53.55329132080078 79.21966552734375 C 57.15722274780273 82.0703125 61.00881195068359 84.33699035644531 65.0010986328125 85.95672607421875 C 69.94754791259766 87.963623046875 75.13909149169922 88.981201171875 80.43148803710938 88.981201171875 C 91.6187744140625 88.981201171875 103.4401168823242 84.47621154785156 115.6033630371094 75.58308410644531 L 73.66309356689453 6.105445861816406 M 7.62939453125e-06 -1.52587890625e-05 C 10.61851501464844 17.47914886474609 24.40384674072266 21.27946472167969 34.38995361328125 21.27946472167969 C 42.07829284667969 21.27946472167969 47.51565551757813 19.02507781982422 47.51565551757813 19.02507781982422 L 74.65150451660156 1.937812805175781 L 119.5727005004883 76.35362243652344 C 104.5298538208008 87.9490966796875 91.40988922119141 91.98120880126953 80.43148803710938 91.98120880126953 C 55.3348388671875 91.98120880126953 41.44204711914063 70.8992919921875 41.44204711914063 70.8992919921875 L 7.62939453125e-06 -1.52587890625e-05 Z"/></g><path class="f" d="M8.709,0S-8.379,6.033,5.317,23.532" transform="translate(46.65 45.918)"/><path class="f" d="M73.073,0S49.8,21.321,36.91,21.177,8.914,17.965,0,2.594" transform="translate(6.561 50.769)"/><path class="u" d="M33.844,0S17.866,14.187,0,9.63" transform="translate(42.936 78.352)"/><path class="u" d="M20.1,0S11.717,6.283,0,.341" transform="translate(39.897 99.553)"/><path class="u" d="M49.79,0S30.447,19.234,0,6.547" transform="translate(48.77 108.295)"/><path class="u" d="M12.835,0S4.943,5.643,0,7.445" transform="translate(75.199 89.534)"/><path class="f" d="M19.774,0S2.115,5.776,0,29.076" transform="translate(8.739 13.328)"/><path class="f" d="M2.388,0S-5.742,12.58,8,25.162" transform="translate(17.249 42.123)"/><path class="f" d="M76.522,6.431S32.18,44.407,0,0" transform="translate(45.865 123.859)"/></g></g><line class="x" x1="9.291" transform="translate(178.038 0.186)"/><line class="y" x1="9.291" transform="translate(344.015 323.55)"/><ellipse class="s" cx="3.079" cy="3.079" rx="3.079" ry="3.079" transform="translate(490.49 92.333)"/></g></g></svg>