<svg xmlns="http://www.w3.org/2000/svg" xmlns:xlink="http://www.w3.org/1999/xlink" width="399" height="569" viewBox="0 0 399 569"><defs><style>.a{fill:#fff;}.b{clip-path:url(#a);}.c{fill:none;stroke-linecap:round;stroke-linejoin:round;}.c,.d{stroke:#98bfff;}.d{fill:#98bfff;}</style><clipPath id="a"><rect class="a" width="399" height="569" transform="translate(1382 2043)"/></clipPath></defs><g class="b" transform="translate(-1382 -2043)"><g transform="translate(1206.399 2234.681)"><path class="c" d="M399.115,363.4l51.222-77.567,29.178,22.379,38.8-62.031" transform="translate(10.311 10.241)"/><path class="c" d="M456.586,250.782l-7.106,1.163,13.213-10.716L459.3,257.113Z" transform="translate(72.846 4.091)"/></g><g transform="matrix(-0.891, -0.454, 0.454, -0.891, 1751.048, 2406.945)"><path class="c" d="M1.86,9.326,0,0,10.982,5.288,5.235,6.2Z" transform="translate(392.677 143.177)"/><path class="c" d="M75.936-43.092c-20.81-13.3-118.6,73.455,7.234,179.009,72.586,60.89,137.64,58.634,145.365,37.45,13.861-38.005-36.195-47.613-17.571-32.727,27.084,21.645,104.12,26.218,161.523,6.019,56.643-19.931,21.827-50.882,18.31-52.688" transform="translate(0 0)"/><circle class="d" cx="3" cy="3" r="3" transform="translate(386.502 136.715)"/><line class="c" y1="54.948" x2="96.995" transform="translate(337.987 113.779)"/><circle class="d" cx="2.5" cy="2.5" r="2.5" transform="translate(75.206 -44.143)"/><ellipse class="d" cx="2.517" cy="2.517" rx="2.517" ry="2.517" transform="translate(49.833 95.765) rotate(98)"/><g transform="translate(40.324 82.641) rotate(82)"><path class="c" d="M15.951,16.276,19.71,15.6,20.5,8.348,14.426,0,12,10.256Z" transform="translate(1.814 0)"/><path class="c" d="M7.192,1.554l-3.759.674.609,2.349,3.6-.65Z" transform="translate(14.331 14.047)"/><line class="c" x2="1.903" y2="9.196" transform="translate(16.24 0)"/></g></g></g></svg>