<svg xmlns="http://www.w3.org/2000/svg" width="90" height="115" viewBox="0 0 90 115"><defs><style>.a{fill:#fff;}.b{fill:#ef3230;}</style></defs><g transform="translate(-968 -1488)"><path class="a" d="M50.758,10.552a8,8,0,0,1,13.483,0l42.9,67.141A8,8,0,0,1,100.4,90H14.6A8,8,0,0,1,7.863,77.693Z" transform="translate(1058 1488) rotate(90)"/><g transform="translate(973 1514)"><path class="b" d="M45.654,57h-28a3.231,3.231,0,0,1-3.231-3.231V35.461H4.731A3.231,3.231,0,0,1,1.5,32.231V17.154a3.231,3.231,0,0,1,3.231-3.231h9.692V4.231A3.231,3.231,0,0,1,17.654,1h28a3.231,3.231,0,0,1,3.231,3.231V53.769A3.231,3.231,0,0,1,45.654,57Zm-28-2.154h28a1.077,1.077,0,0,0,1.077-1.077V50.538H16.577v3.231A1.077,1.077,0,0,0,17.654,54.846Zm-14-37.692V32.231a1.077,1.077,0,0,0,1.077,1.077h28a1.077,1.077,0,0,0,1.077-1.077V17.154a1.077,1.077,0,0,0-1.077-1.077h-28A1.077,1.077,0,0,0,3.654,17.154Zm29.077-3.231a3.231,3.231,0,0,1,3.231,3.231V32.231a3.231,3.231,0,0,1-3.231,3.231H16.577V48.385H46.731V9.615H16.577v4.308ZM45.654,3.154h-28a1.077,1.077,0,0,0-1.077,1.077V7.462H46.731V4.231A1.077,1.077,0,0,0,45.654,3.154Z" transform="translate(-1.5 -1)"/></g></g></svg>