<svg xmlns="http://www.w3.org/2000/svg" width="90" height="115" viewBox="0 0 90 115"><defs><style>.a{fill:#fff;}.b{fill:#ef3230;}</style></defs><g transform="translate(-1248 -1488)"><path class="a" d="M50.758,10.552a8,8,0,0,1,13.483,0l42.9,67.141A8,8,0,0,1,100.4,90H14.6A8,8,0,0,1,7.863,77.693Z" transform="translate(1338 1488) rotate(90)"/><g transform="translate(1251.014 1517)"><path class="b" d="M49.148,19.675a7.838,7.838,0,1,0-7.838-7.838,7.638,7.638,0,0,0,.224,1.837L28.6,18.847a14.556,14.556,0,1,0,0,12.854l12.932,5.173a8.241,8.241,0,0,0-.224,1.836,7.838,7.838,0,1,0,1.12-3.919L29.453,29.629a14.69,14.69,0,0,0,0-8.711L42.43,15.757a7.838,7.838,0,0,0,6.718,3.919Zm0,13.436a5.6,5.6,0,1,1-5.6,5.6A5.6,5.6,0,0,1,49.148,33.112ZM27.874,24.154H21.693a24.812,24.812,0,0,0-2.385-10.615,12.316,12.316,0,0,1,8.566,10.615ZM15.557,37.59c-1.512,0-3.684-4.333-3.9-11.2H19.5C19.241,33.257,17.069,37.59,15.557,37.59Zm-3.9-13.436c.213-6.864,2.385-11.2,3.9-11.2s3.684,4.333,3.9,11.2Zm.146-10.615A24.812,24.812,0,0,0,9.422,24.154H3.3a12.316,12.316,0,0,1,8.51-10.615ZM3.3,26.394H9.422a24.812,24.812,0,0,0,2.385,10.615A12.316,12.316,0,0,1,3.3,26.394ZM19.308,37.008a24.812,24.812,0,0,0,2.385-10.615h6.181A12.316,12.316,0,0,1,19.308,37.008ZM49.148,6.239a5.6,5.6,0,1,1-5.6,5.6A5.6,5.6,0,0,1,49.148,6.239Z" transform="translate(0 0)"/></g></g></svg>