<svg xmlns="http://www.w3.org/2000/svg" xmlns:xlink="http://www.w3.org/1999/xlink" width="52" height="63" viewBox="0 0 52 63"><defs><style>.a{fill:#fff;}.b{fill:#ef3230;}.c{filter:url(#a);}</style><filter id="a" x="0" y="0" width="52" height="63" filterUnits="userSpaceOnUse"><feOffset dy="2" input="SourceAlpha"/><feGaussianBlur stdDeviation="2" result="b"/><feFlood flood-color="#005cfb" flood-opacity="0.102"/><feComposite operator="in" in2="b"/><feComposite in="SourceGraphic"/></filter></defs><g transform="translate(6 4)"><g class="c" transform="matrix(1, 0, 0, 1, -6, -4)"><path class="a" d="M21.284,6.614a5,5,0,0,1,8.432,0L46.1,32.312A5,5,0,0,1,41.883,40H9.117A5,5,0,0,1,4.9,32.312Z" transform="translate(6 55) rotate(-90)"/></g><g transform="translate(19.155 18.5)"><g transform="translate(0)"><g transform="translate(0 0)"><path class="b" d="M11.893,13.583h0a.882.882,0,0,0-.278-1.152L3.072,7.014l8.544-5.446A.883.883,0,0,0,11.893.415h0a.745.745,0,0,0-1.064-.3L0,7.018l10.829,6.866A.745.745,0,0,0,11.893,13.583Z" transform="translate(0 0)"/></g></g></g></g></svg>