<svg xmlns="http://www.w3.org/2000/svg" width="90" height="115" viewBox="0 0 90 115"><defs><style>.a{fill:#fff;}.b{fill:#ef3230;}</style></defs><g transform="translate(-1248 -1488)"><path class="a" d="M50.758,10.552a8,8,0,0,1,13.483,0l42.9,67.141A8,8,0,0,1,100.4,90H14.6A8,8,0,0,1,7.863,77.693Z" transform="translate(1338 1488) rotate(90)"/><g transform="translate(1251 1521.222)"><path class="b" d="M55.08,13.4,53.636,14.86V6.438A3.449,3.449,0,0,0,50.2,3H4.438A3.449,3.449,0,0,0,1,6.438v35.68a3.449,3.449,0,0,0,3.438,3.438H50.2a3.449,3.449,0,0,0,3.438-3.438v-24.1l3.035-3.024a1.124,1.124,0,1,0-1.59-1.59ZM51.4,42.118a1.2,1.2,0,0,1-1.2,1.2H4.438a1.2,1.2,0,0,1-1.2-1.2V6.438a1.2,1.2,0,0,1,1.2-1.2H50.2a1.2,1.2,0,0,1,1.2,1.2V17.1l-6.574,6.574-4.838-6.719a1.12,1.12,0,0,0-1.736-.112L26.892,29.183l-3.684-5.521a1.12,1.12,0,0,0-1.725-.179l-7.044,7.033a4.536,4.536,0,1,0,1.6,1.6L22.1,26.059l3.729,5.6a1.12,1.12,0,0,0,1.758.146L38.965,19.328l4.8,6.719a1.12,1.12,0,0,0,1.7.146L51.4,20.258ZM14.439,34.357a2.24,2.24,0,1,1-2.24-2.24A2.24,2.24,0,0,1,14.439,34.357Z"/></g></g></svg>