<svg xmlns="http://www.w3.org/2000/svg" xmlns:xlink="http://www.w3.org/1999/xlink" width="52" height="63" viewBox="0 0 52 63"><defs><style>.a{fill:#fff;}.b{fill:#ffb2b1;}.c{filter:url(#a);}</style><filter id="a" x="0" y="0" width="52" height="63" filterUnits="userSpaceOnUse"><feOffset dy="2" input="SourceAlpha"/><feGaussianBlur stdDeviation="2" result="b"/><feFlood flood-color="#005cfb" flood-opacity="0.102"/><feComposite operator="in" in2="b"/><feComposite in="SourceGraphic"/></filter></defs><g transform="translate(-1597 -3663)"><g class="c" transform="matrix(1, 0, 0, 1, 1597, 3663)"><path class="a" d="M21.284,6.614a5,5,0,0,1,8.432,0L46.1,32.312A5,5,0,0,1,41.883,40H9.117A5,5,0,0,1,4.9,32.312Z" transform="translate(46 4) rotate(90)"/></g><g transform="translate(-0.931 1839.106)"><g transform="translate(1612.777 1846.394)"><g transform="translate(0 0)"><path class="b" d="M.107,13.583h0A.882.882,0,0,1,.386,12.43L8.928,7.014.383,1.569A.883.883,0,0,1,.107.415h0a.745.745,0,0,1,1.064-.3L12,7.018,1.171,13.885A.745.745,0,0,1,.107,13.583Z" transform="translate(0 0)"/></g></g></g></g></svg>