<svg xmlns="http://www.w3.org/2000/svg" width="90" height="115" viewBox="0 0 90 115"><defs><style>.a{fill:#fff;}.b{fill:#ef3230;}</style></defs><g transform="translate(-698 -1488)"><path class="a" d="M50.758,10.552a8,8,0,0,1,13.483,0l42.9,67.141A8,8,0,0,1,100.4,90H14.6A8,8,0,0,1,7.863,77.693Z" transform="translate(788 1488) rotate(90)"/><g transform="translate(699.5 1513)"><path class="b" d="M56.14,1H6.86A3.36,3.36,0,0,0,3.5,4.36V40.2a3.36,3.36,0,0,0,3.36,3.36H24.578l-1.87,11.2H21.42a1.12,1.12,0,0,0,0,2.24H42.14a1.12,1.12,0,1,0,0-2.24H40.292l-1.87-11.2H56.14A3.36,3.36,0,0,0,59.5,40.2V4.36A3.36,3.36,0,0,0,56.14,1ZM38.018,54.76H24.982l1.87-11.2h9.3ZM57.26,40.2a1.12,1.12,0,0,1-1.12,1.12H6.86A1.12,1.12,0,0,1,5.74,40.2V4.36A1.12,1.12,0,0,1,6.86,3.24H56.14a1.12,1.12,0,0,1,1.12,1.12Z" transform="translate(0)"/></g></g></svg>